<svg width="188" height="50" viewBox="0 0 188 50" fill="none" xmlns="http://www.w3.org/2000/svg">
<g clip-path="url(#clip0_332_49)">
<path d="M46.4286 0H7.14286C3.19797 0 0 3.19797 0 7.14286V42.8571C0 46.802 3.19797 50 7.14286 50H46.4286C50.3735 50 53.5714 46.802 53.5714 42.8571V7.14286C53.5714 3.19797 50.3735 0 46.4286 0Z" fill="#F4A261"/>
<path d="M11.1786 36.1606V13.6606H21.4643C23.5214 13.6606 25.2893 13.9928 26.7679 14.6571C28.2679 15.3214 29.425 16.2856 30.2393 17.5499C31.0536 18.7928 31.4607 20.2714 31.4607 21.9856C31.4607 23.6785 31.0536 25.1464 30.2393 26.3892C29.425 27.6321 28.2679 28.5964 26.7679 29.2821C25.2893 29.9464 23.5214 30.2785 21.4643 30.2785H14.7143L17.5429 27.5142V36.1606H11.1786ZM17.5429 28.1892L14.7143 25.2642H21.0786C22.4072 25.2642 23.3929 24.9749 24.0357 24.3964C24.7 23.8178 25.0322 23.0142 25.0322 21.9856C25.0322 20.9356 24.7 20.1214 24.0357 19.5428C23.3929 18.9642 22.4072 18.6749 21.0786 18.6749H14.7143L17.5429 15.7499V28.1892ZM35.0146 36.4499C32.9574 36.4499 31.1573 36.0642 29.6145 35.2928C28.0931 34.4999 26.9038 33.4285 26.0466 32.0785C25.2109 30.7071 24.7931 29.1535 24.7931 27.4178C24.7931 25.6821 25.2002 24.1392 26.0145 22.7892C26.8502 21.4178 27.9966 20.3571 29.4538 19.6071C30.9109 18.8356 32.5502 18.4499 34.3717 18.4499C36.086 18.4499 37.6503 18.8035 39.0645 19.5106C40.4788 20.1964 41.6038 21.2142 42.4396 22.5642C43.2753 23.9142 43.6931 25.5535 43.6931 27.4821C43.6931 27.6964 43.6823 27.9428 43.661 28.2214C43.6396 28.4999 43.6181 28.7571 43.5967 28.9928H29.8073V25.7785H40.3503L38.0359 26.6785C38.0574 25.8856 37.9074 25.1999 37.5859 24.6214C37.2859 24.0428 36.8573 23.5928 36.3003 23.2714C35.7645 22.9499 35.1323 22.7892 34.4038 22.7892C33.6753 22.7892 33.0324 22.9499 32.4752 23.2714C31.9395 23.5928 31.5216 24.0535 31.2216 24.6535C30.9216 25.2321 30.7716 25.9178 30.7716 26.7106V27.6428C30.7716 28.4999 30.9431 29.2392 31.286 29.8606C31.6502 30.4821 32.1645 30.9642 32.8288 31.3071C33.4931 31.6285 34.286 31.7892 35.2073 31.7892C36.0646 31.7892 36.7931 31.6714 37.3931 31.4356C38.0146 31.1785 38.6252 30.7928 39.2252 30.2785L42.4396 33.6214C41.6038 34.5428 40.5752 35.2499 39.3539 35.7428C38.1323 36.2142 36.6859 36.4499 35.0146 36.4499Z" fill="#171717"/>
</g>
<path d="M60.7594 5.336H67.8874C69.6914 5.336 71.1067 5.81267 72.1334 6.766C73.1601 7.70467 73.6734 8.988 73.6734 10.616C73.6734 12.244 73.1601 13.5347 72.1334 14.488C71.1067 15.4267 69.6914 15.896 67.8874 15.896H64.4774V21H60.7594V5.336ZM64.4774 12.75H67.6454C68.3787 12.75 68.9434 12.5667 69.3394 12.2C69.7501 11.8333 69.9554 11.3053 69.9554 10.616C69.9554 9.92667 69.7501 9.39867 69.3394 9.032C68.9287 8.66533 68.3641 8.482 67.6454 8.482H64.4774V12.75ZM88.1508 17.106L88.2608 19.306C88.2755 20.01 88.4221 20.5747 88.7008 21H84.8728C84.6381 20.56 84.5135 19.988 84.4988 19.284L84.4328 17.524C84.4035 16.6587 84.2055 16.0647 83.8388 15.742C83.4868 15.4047 82.9148 15.236 82.1228 15.236H79.0868V21H75.3688V5.336H82.7828C84.6161 5.336 86.0168 5.74667 86.9848 6.568C87.9675 7.37467 88.4588 8.47467 88.4588 9.868C88.4588 11.672 87.6155 12.9113 85.9288 13.586C86.7355 13.85 87.2928 14.2533 87.6008 14.796C87.9235 15.3387 88.1068 16.1087 88.1508 17.106ZM79.0868 8.306V12.442H82.3648C83.0835 12.442 83.6408 12.266 84.0368 11.914C84.4328 11.5473 84.6308 11.0267 84.6308 10.352C84.6308 8.988 83.8535 8.306 82.2988 8.306H79.0868ZM102.225 5.336V8.658H93.9755V11.496H101.477V14.62H93.9755V17.678H102.203V21H90.2575V5.336H102.225ZM111.05 21.352C108.718 21.352 106.833 20.6113 105.396 19.13C103.959 17.6487 103.24 15.6613 103.24 13.168C103.24 10.6453 103.944 8.65067 105.352 7.184C106.76 5.71733 108.659 4.984 111.05 4.984C112.986 4.984 114.629 5.49733 115.978 6.524C117.357 7.56533 118.185 9.03933 118.464 10.946H114.702C114.467 10.066 114.027 9.39133 113.382 8.922C112.751 8.438 111.974 8.196 111.05 8.196C109.789 8.196 108.813 8.62867 108.124 9.494C107.449 10.3593 107.112 11.584 107.112 13.168C107.112 14.752 107.449 15.9767 108.124 16.842C108.813 17.7073 109.789 18.14 111.05 18.14C112.018 18.14 112.839 17.8613 113.514 17.304C114.189 16.7467 114.614 15.9693 114.79 14.972H118.508C118.273 16.996 117.474 18.5653 116.11 19.68C114.731 20.7947 113.045 21.352 111.05 21.352ZM123.925 21H120.207V5.336H123.925V21ZM139.486 19.108C138.005 20.604 136.069 21.352 133.678 21.352C131.288 21.352 129.352 20.604 127.87 19.108C126.389 17.5973 125.648 15.6173 125.648 13.168C125.648 10.7187 126.389 8.73867 127.87 7.228C129.352 5.732 131.288 4.984 133.678 4.984C136.069 4.984 138.005 5.732 139.486 7.228C140.968 8.73867 141.708 10.7187 141.708 13.168C141.708 15.6173 140.968 17.5973 139.486 19.108ZM130.664 16.798C131.412 17.678 132.417 18.118 133.678 18.118C134.925 18.118 135.937 17.678 136.714 16.798C137.477 15.9327 137.858 14.7227 137.858 13.168C137.858 11.6133 137.477 10.4033 136.714 9.538C135.937 8.658 134.925 8.218 133.678 8.218C132.417 8.218 131.412 8.658 130.664 9.538C129.902 10.4033 129.52 11.6133 129.52 13.168C129.52 14.7227 129.902 15.9327 130.664 16.798ZM150.009 21.352C147.971 21.352 146.328 20.802 145.081 19.702C143.835 18.6313 143.211 17.0767 143.211 15.038V5.336H146.929V15.082C146.929 16.0793 147.193 16.842 147.721 17.37C148.264 17.8833 149.027 18.14 150.009 18.14C150.992 18.14 151.755 17.8833 152.297 17.37C152.84 16.842 153.111 16.0793 153.111 15.082V5.336H156.829V15.038C156.829 17.0473 156.221 18.602 155.003 19.702C153.801 20.802 152.136 21.352 150.009 21.352ZM165.08 21.352C162.895 21.352 161.208 20.868 160.02 19.9C158.832 18.932 158.231 17.5827 158.216 15.852H161.824C161.839 16.82 162.117 17.4947 162.66 17.876C163.217 18.2573 164.068 18.448 165.212 18.448C166.987 18.448 167.874 17.8467 167.874 16.644C167.874 16.116 167.676 15.7273 167.28 15.478C166.899 15.214 166.158 14.9793 165.058 14.774L163.782 14.532C160.291 13.9453 158.546 12.31 158.546 9.626C158.546 8.20333 159.074 7.074 160.13 6.238C161.201 5.402 162.711 4.984 164.662 4.984C166.745 4.984 168.336 5.424 169.436 6.304C170.536 7.184 171.123 8.44533 171.196 10.088H167.676C167.632 9.32533 167.375 8.768 166.906 8.416C166.451 8.064 165.725 7.888 164.728 7.888C163.129 7.888 162.33 8.416 162.33 9.472C162.33 10 162.521 10.4033 162.902 10.682C163.298 10.9607 163.995 11.1953 164.992 11.386L166.312 11.628C168.204 11.9653 169.575 12.5153 170.426 13.278C171.291 14.026 171.724 15.0673 171.724 16.402C171.724 18.0007 171.137 19.2253 169.964 20.076C168.791 20.9267 167.163 21.352 165.08 21.352ZM72.7274 29.336V32.658H64.4774V35.496H71.9794V38.62H64.4774V41.678H72.7054V45H60.7594V29.336H72.7274ZM82.6305 36.222L84.8965 29.336H88.7245L83.2465 45H78.8465L73.1925 29.336H77.1745L79.4625 36.222C80.1812 38.466 80.7165 40.2993 81.0685 41.722C81.5818 39.7127 82.1025 37.8793 82.6305 36.222ZM102.702 45H98.7642L97.8402 42.272H91.3282L90.4262 45H86.6202L92.3842 29.336H96.8062L102.702 45ZM93.2642 36.486L92.3622 39.17H96.7842L95.8822 36.486C95.6036 35.694 95.1636 34.374 94.5622 32.526C93.7849 34.9167 93.3522 36.2367 93.2642 36.486ZM113.914 32.614V29.336H117.456V45H113.452L109.624 38.752C108.451 36.8013 107.637 35.3787 107.182 34.484C107.241 36.4933 107.27 38.906 107.27 41.722V45H103.728V29.336H107.732L111.56 35.584C112.66 37.4027 113.474 38.84 114.002 39.896C113.943 37.8573 113.914 35.43 113.914 32.614ZM125.935 45.352C123.75 45.352 122.063 44.868 120.875 43.9C119.687 42.932 119.086 41.5827 119.071 39.852H122.679C122.694 40.82 122.973 41.4947 123.515 41.876C124.073 42.2573 124.923 42.448 126.067 42.448C127.842 42.448 128.729 41.8467 128.729 40.644C128.729 40.116 128.531 39.7273 128.135 39.478C127.754 39.214 127.013 38.9793 125.913 38.774L124.637 38.532C121.147 37.9453 119.401 36.31 119.401 33.626C119.401 32.2033 119.929 31.074 120.985 30.238C122.056 29.402 123.567 28.984 125.517 28.984C127.6 28.984 129.191 29.424 130.291 30.304C131.391 31.184 131.978 32.4453 132.051 34.088H128.531C128.487 33.3253 128.231 32.768 127.761 32.416C127.307 32.064 126.581 31.888 125.583 31.888C123.985 31.888 123.185 32.416 123.185 33.472C123.185 34 123.376 34.4033 123.757 34.682C124.153 34.9607 124.85 35.1953 125.847 35.386L127.167 35.628C129.059 35.9653 130.431 36.5153 131.281 37.278C132.147 38.026 132.579 39.0673 132.579 40.402C132.579 42.0007 131.993 43.2253 130.819 44.076C129.646 44.9267 128.018 45.352 125.935 45.352Z" fill="#F5E9DC"/>
<defs>
<clipPath id="clip0_332_49">
<rect width="53.5714" height="50" fill="white"/>
</clipPath>
</defs>
</svg>
